PathFileType	4	(X/Y/Z)	/Users/visionmauri/1_5_1_f_1_Sports2D/1_5_1_f_1_Sports2D_px_person00.trc
DataRate	CameraRate	NumFrames	NumMarkers	Units	OrigDataRate	OrigDataStartFrame	OrigNumFrames
30.0	30.0	4	22	m	30.0	378	432
Frame#	Time	Hip			RHip			RKnee			RAnkle			RBigToe			RSmallToe			RHeel			LHip			LKnee			LAnkle			LBigToe			LSmallToe			LHeel			Neck			Head			Nose			RShoulder			RElbow			RWrist			LShoulder			LElbow			LWrist			
		X1	Y1	Z1	X2	Y2	Z2	X3	Y3	Z3	X4	Y4	Z4	X5	Y5	Z5	X6	Y6	Z6	X7	Y7	Z7	X8	Y8	Z8	X9	Y9	Z9	X10	Y10	Z10	X11	Y11	Z11	X12	Y12	Z12	X13	Y13	Z13	X14	Y14	Z14	X15	Y15	Z15	X16	Y16	Z16	X17	Y17	Z17	X18	Y18	Z18	X19	Y19	Z19	X20	Y20	Z20	X21	Y21	Z21	X22	Y22	Z22
378	12.6292343387471	555.1902528899261	877.1662489685324	0.0	483.35638224620436	896.4751826309861	0.0	467.10798600922743	1159.1193965495988	0.0	486.21855474644826	1387.4568690265974	0.0	482.960508033388	1506.5275858879986	0.0	440.75002621300916	1491.2355359689961	0.0	502.6854366477683	1414.1871756733608	0.0	625.507085682253	898.6344683324178	0.0	612.3622977957795	1130.9614258919162	0.0	605.1831455371536	1389.4310488667622	0.0	600.8903604304056	1492.0144999374488	0.0	640.1594859260368	1481.742893922913	0.0	589.8097455522467	1417.811823271294	0.0	588.3601037595104	486.7359581692679	0.0	619.4241218754776	340.30061432416966	0.0	623.3630770507328	471.56950915236166	0.0	453.5707509821006	528.0800403816052	0.0	388.33818205854146	694.8762109781942	0.0	320.7454287518745	839.0957415952754	0.0	709.745340087622	529.1784038700798	0.0	748.3897861215287	682.0202101739176	0.0	759.5139724884679	720.678985592292	0.0
379	12.66264501160093	553.0272923739345	880.4350779669912	0.0	481.68898635340526	896.3625511978206	0.0	468.1519919715722	1161.848213714537	0.0	483.50519107612075	1413.3004306818345	0.0	481.76895390300797	1530.6657069702937	0.0	436.6449893606387	1516.8892160805333	0.0	498.51597305034875	1443.1459067348794	0.0	624.8156648064555	900.6133884872206	0.0	612.3921841739642	1135.1161518659737	0.0	605.7516713897318	1388.9355913423456	0.0	602.4420765703438	1493.296310650492	0.0	640.4934722141128	1483.6014125061536	0.0	589.2821190867427	1419.4279145627704	0.0	586.2553717853822	485.9268466704376	0.0	615.9484887600004	337.3717612576754	0.0	621.6041770356386	471.7909613921755	0.0	451.8261782146211	528.2757291386362	0.0	386.9386512853551	694.6149647346347	0.0	320.94871229592894	838.7096522140906	0.0	709.4043795501552	527.0259596079213	0.0	747.9623451583951	682.5376997537936	0.0	760.5602311590134	724.4497421000142	0.0
380	12.696055684454757	551.4066959636617	884.7109801713167	0.0	479.6945005024328	899.0837473441917	0.0	468.69026063856126	1164.546553492993	0.0	480.92348084716014	1434.5089442728017	0.0	481.1276258695452	1548.575646823585	0.0	434.53843405328666	1536.2871382071999	0.0	494.84227708351386	1467.3381896138794	0.0	624.3102145938357	903.4484782569168	0.0	611.7259525106331	1140.4503864531698	0.0	607.1686714800426	1388.7552650112684	0.0	602.2545732620099	1496.7298072001156	0.0	640.2227371630855	1486.682879322433	0.0	590.4803066006143	1422.692197461163	0.0	584.2551208247341	485.64747584022916	0.0	612.6732249486463	335.2693885476162	0.0	618.1035458448378	471.6605741454059	0.0	448.9892021444613	528.3948657282529	0.0	385.51033558509107	694.9107971783819	0.0	321.2056762715727	839.0512244530197	0.0	709.7357043102668	526.7649594683169	0.0	748.6351373827665	685.3474940813303	0.0	763.9323650541435	737.9518661803687	0.0
381	12.729466357308585	549.8785517762107	888.2737515130126	0.0	477.2903506428805	904.9671618082053	0.0	468.3153488962915	1169.6107782986348	0.0	478.3795823947165	1449.5258274287014	0.0	481.9741749415709	1554.6906507770645	0.0	435.39763651966945	1544.708475194466	0.0	490.66735223312526	1485.5779042115	0.0	622.8040879942436	907.4146434313482	0.0	610.3276024399289	1144.214746477716	0.0	608.4179373289559	1389.3193231983341	0.0	600.7279809293127	1499.1219552330813	0.0	638.6397962378293	1488.0014671578028	0.0	593.9480664441534	1425.5457024470054	0.0	582.0202991808543	485.2615189545932	0.0	609.1325803260816	334.89047128011	0.0	614.2514558000776	471.67841109878134	0.0	445.2713373005499	528.5040015931073	0.0	384.23681957316427	695.51851017474	0.0	321.3117088274849	840.4609293144642	0.0	709.9602007088281	527.641617976567	0.0	750.868194552761	694.2680401875692	0.0	766.9614734285079	747.9176103318459	0.0
